<svg id="Layer_1" data-name="Layer 1" xmlns="http://www.w3.org/2000/svg" viewBox="0 0 260 68.95"><defs><style>.cls-1,.cls-2,.cls-3,.cls-4{fill:#fff;}.cls-1{fill-rule:evenodd;}.cls-2{font-size:13.09px;font-family:Montserrat-Bold, Montserrat;font-weight:700;letter-spacing:0.2em;}.cls-4{font-size:16.84px;font-family:Montserrat-Black, Montserrat;font-weight:800;}</style></defs><path class="cls-1" d="M198.39,45.57h0m-45.57-.16v-3l-7.83-.9v3.31Zm1.26.1,9.09.73v-2.7l-9.09-1Zm10.35-20.8,34-12.86,34,12.89V23.45l-4.57-1.73V20.2L198.39,9.05l-3.13,1.18v1.52L164.43,23.42Zm-1.26,24.88v-2.8l-9.09-.74v3.17ZM145,48.85l7.83.32V46L145,45.32Zm99-4.45V48l7.83-.32V43.77Zm-10.34.84v3.2l9.08-.37V44.5ZM244,40.81v3l7.83-.64V39.91ZM233.7,42v2.7l9.08-.74V41Zm-34.64,5.5,33.37-2.7V42.14L199.06,46Zm0,.54v1.81l33.37-1.36V45.34ZM198.52,18l33.91,12.84V29.53l-9.54-3.61V24.4l-24.5-9.27-3.13,1.18v1.52q-15.44,5.82-30.83,11.67v1.29l34-12.86ZM164.43,36.87l34-12.86,34,12.89V35.61l-14.51-5.5V28.6l-19.53-7.39-3.13,1.18v1.52q-15.44,5.82-30.83,11.67Zm0,6.1,34-12.86,31.18,11.81,2.65-.31-20.71-7.84V32.25l-13.12-5-3.13,1.18V30L164.43,41.66Zm9.38,1.24,2.31.27L198.39,36l19.15,7.25,2.31-.26-18.33-6.94V34.57l-3.13-1.18-3.13,1.18v1.52Q184.52,40.14,173.81,44.21Zm-9.38,2.14,33.37,2.7V47.51l-33.37-3.82ZM244,48.56v4.66l4,.39c1.27.12,2.56.26,3.87.4V48.24ZM233.7,49v3.4c1.52.11,3.05.22,4.58.35l4.5.38v-4.5Zm-34.64,1.41v.74q8.37,0,16.73.3t16.64.86V49Zm-34.63-.75L197.8,51V49.59l-33.37-2.7Zm-20.7,4.5V49.33L132,48.86l.12-.53,11.65.47V45.21l-11.83-1,.24-.53,11.59.94V41.32L131.86,40l.33-.52,11.54,1.32V35.64H145v5.27l7.83.9V30.14h1.26V42l9.09,1V18.88l.07,0L184.06,11l14.37-5.44.13,0,24.66,9.33,10.48,4V41.44l9.08-1V30.14H244V40.26l7.83-.9V35.64h1.27v3.58l11.54-1.33.32.52-11.86,1.36v3.35l11.58-.94.24.53-11.82.95v4l11.64-.47.12.53-11.76.48v6c1.84.21,3.68.42,5.52.65s3.78.47,5.66.73a.56.56,0,0,1,.33.12.19.19,0,0,1,.08.2l0,.09-.2,0c-21.48-1.76-43.32-2.61-65.23-2.58-22.2,0-44.5,1-66.58,2.75h0a.94.94,0,0,1-.39-.06.39.39,0,0,1-.19-.16v0a.18.18,0,0,1,.08-.19.63.63,0,0,1,.33-.13c1.9-.25,3.8-.5,5.69-.73S141.87,54.35,143.73,54.14Zm9.09-.92V49.7L145,49.39V54l3.86-.4Zm10.35-.85V50.13l-9.09-.37V53.1l4.5-.38Zm15.28-.84q5.61-.22,11.24-.33l-25.26-1v2.11Q171.42,51.81,178.45,51.53Z" transform="translate(-5 -5.53)"/><text class="cls-2" transform="translate(42.98 63.24)">GMBH</text><polygon class="cls-3" points="0 0.47 34.14 64.34 67.92 0.47 54.87 0.47 33.96 38.18 13.05 0.47 0 0.47"/><polygon class="cls-3" points="69.39 0.53 103.53 64.4 137.32 0.53 124.27 0.53 103.36 38.24 82.44 0.53 69.39 0.53"/><polygon class="cls-3" points="68.66 24.42 55.05 48.19 82.76 48.19 68.66 24.42"/><text class="cls-4" transform="translate(123.13 64.4)">ARMIERUNGEN</text></svg>